{
    "asset" : {
        "generator" : "Khronos glTF Blender I/O v3.2.43",
        "version" : "2.0"
    },
    "scene" : 0,
    "scenes" : [
        {
            "name" : "Scene",
            "nodes" : [
                0,
                1,
                2,
                3,
                4,
                5,
                6
            ]
        }
    ],
    "nodes" : [
        {
            "mesh" : 0,
            "name" : "TQ_ARD-node"
        },
        {
            "mesh" : 1,
            "name" : "Plane.002"
        },
        {
            "mesh" : 2,
            "name" : "Plane.003"
        },
        {
            "mesh" : 3,
            "name" : "Plane.004"
        },
        {
            "mesh" : 4,
            "name" : "Text"
        },
        {
            "mesh" : 5,
            "name" : "Text.001"
        },
        {
            "mesh" : 6,
            "name" : "Text.002"
        }
    ],
    "materials" : [
        {
            "doubleSided" : true,
            "name" : "TQ_ARD_front",
            "pbrMetallicRoughness" : {
                "baseColorTexture" : {
                    "index" : 0
                },
                "metallicFactor" : 0
            }
        },
        {
            "doubleSided" : true,
            "name" : "TQ_ARD_back",
            "pbrMetallicRoughness" : {
                "baseColorFactor" : [
                    0.18618826568126678,
                    0.10398656129837036,
                    0.0466390959918499,
                    1
                ],
                "metallicFactor" : 0,
                "roughnessFactor" : 0.5
            }
        },
        {
            "doubleSided" : true,
            "name" : "TQ_ARD_edge",
            "pbrMetallicRoughness" : {
                "baseColorTexture" : {
                    "index" : 1
                },
                "metallicFactor" : 0,
                "roughnessFactor" : 0.5
            }
        },
        {
            "doubleSided" : true,
            "name" : "Material.002",
            "pbrMetallicRoughness" : {
                "baseColorFactor" : [
                    0,
                    0,
                    0,
                    1
                ],
                "roughnessFactor" : 0.5
            }
        }
    ],
    "meshes" : [
        {
            "name" : "TQ_ARD-geom",
            "primitives" : [
                {
                    "attributes" : {
                        "POSITION" : 0,
                        "NORMAL" : 1,
                        "TEXCOORD_0" : 2
                    },
                    "indices" : 3,
                    "material" : 0
                },
                {
                    "attributes" : {
                        "POSITION" : 4,
                        "NORMAL" : 5,
                        "TEXCOORD_0" : 6
                    },
                    "indices" : 7,
                    "material" : 1
                },
                {
                    "attributes" : {
                        "POSITION" : 8,
                        "NORMAL" : 9,
                        "TEXCOORD_0" : 10
                    },
                    "indices" : 11,
                    "material" : 2
                }
            ]
        },
        {
            "name" : "Plane.002",
            "primitives" : [
                {
                    "attributes" : {
                        "POSITION" : 12,
                        "NORMAL" : 13,
                        "TEXCOORD_0" : 14
                    },
                    "indices" : 15,
                    "material" : 3
                }
            ]
        },
        {
            "name" : "Plane.001",
            "primitives" : [
                {
                    "attributes" : {
                        "POSITION" : 16,
                        "NORMAL" : 17,
                        "TEXCOORD_0" : 18
                    },
                    "indices" : 19,
                    "material" : 3
                }
            ]
        },
        {
            "name" : "Plane.003",
            "primitives" : [
                {
                    "attributes" : {
                        "POSITION" : 20,
                        "NORMAL" : 21,
                        "TEXCOORD_0" : 22
                    },
                    "indices" : 23,
                    "material" : 3
                }
            ]
        },
        {
            "name" : "Text",
            "primitives" : [
                {
                    "attributes" : {
                        "POSITION" : 24,
                        "NORMAL" : 25,
                        "TEXCOORD_0" : 26
                    },
                    "indices" : 27,
                    "material" : 3
                }
            ]
        },
        {
            "name" : "Text.001",
            "primitives" : [
                {
                    "attributes" : {
                        "POSITION" : 28,
                        "NORMAL" : 29,
                        "TEXCOORD_0" : 30
                    },
                    "indices" : 31,
                    "material" : 3
                }
            ]
        },
        {
            "name" : "Text.002",
            "primitives" : [
                {
                    "attributes" : {
                        "POSITION" : 32,
                        "NORMAL" : 33,
                        "TEXCOORD_0" : 34
                    },
                    "indices" : 35,
                    "material" : 3
                }
            ]
        }
    ],
    "textures" : [
        {
            "sampler" : 0,
            "source" : 0
        },
        {
            "sampler" : 0,
            "source" : 1
        }
    ],
    "images" : [
        {
            "bufferView" : 4,
            "mimeType" : "image/png",
            "name" : "1-01"
        },
        {
            "bufferView" : 13,
            "mimeType" : "image/png",
            "name" : "TQ_ARD-I1"
        }
    ],
    "accessors" : [
        {
            "bufferView" : 0,
            "componentType" : 5126,
            "count" : 953,
            "max" : [
                0.12796355783939362,
                0.436491459608078,
                0.1308584213256836
            ],
            "min" : [
                -0.12531648576259613,
                -0.3739924728870392,
                -0.1224217340350151
            ],
            "type" : "VEC3"
        },
        {
            "bufferView" : 1,
            "componentType" : 5126,
            "count" : 953,
            "type" : "VEC3"
        },
        {
            "bufferView" : 2,
            "componentType" : 5126,
            "count" : 953,
            "type" : "VEC2"
        },
        {
            "bufferView" : 3,
            "componentType" : 5123,
            "count" : 2427,
            "type" : "SCALAR"
        },
        {
            "bufferView" : 5,
            "componentType" : 5126,
            "count" : 1151,
            "max" : [
                0.12587831914424896,
                0.4325251877307892,
                0.12921811640262604
            ],
            "min" : [
                -0.12366922199726105,
                -0.3719637393951416,
                -0.12033658474683762
            ],
            "type" : "VEC3"
        },
        {
            "bufferView" : 6,
            "componentType" : 5126,
            "count" : 1151,
            "type" : "VEC3"
        },
        {
            "bufferView" : 7,
            "componentType" : 5126,
            "count" : 1151,
            "type" : "VEC2"
        },
        {
            "bufferView" : 8,
            "componentType" : 5123,
            "count" : 2427,
            "type" : "SCALAR"
        },
        {
            "bufferView" : 9,
            "componentType" : 5126,
            "count" : 926,
            "max" : [
                0.12682433426380157,
                0.436491459608078,
                0.13085633516311646
            ],
            "min" : [
                -0.12531642615795135,
                -0.3739924728870392,
                -0.12241774052381516
            ],
            "type" : "VEC3"
        },
        {
            "bufferView" : 10,
            "componentType" : 5126,
            "count" : 926,
            "type" : "VEC3"
        },
        {
            "bufferView" : 11,
            "componentType" : 5126,
            "count" : 926,
            "type" : "VEC2"
        },
        {
            "bufferView" : 12,
            "componentType" : 5123,
            "count" : 1776,
            "type" : "SCALAR"
        },
        {
            "bufferView" : 14,
            "componentType" : 5126,
            "count" : 240,
            "max" : [
                0.1828281730413437,
                -0.37197452783584595,
                0.1307751089334488
            ],
            "min" : [
                0.13498124480247498,
                -0.37338918447494507,
                -0.12108556181192398
            ],
            "type" : "VEC3"
        },
        {
            "bufferView" : 15,
            "componentType" : 5126,
            "count" : 240,
            "type" : "VEC3"
        },
        {
            "bufferView" : 16,
            "componentType" : 5126,
            "count" : 240,
            "type" : "VEC2"
        },
        {
            "bufferView" : 17,
            "componentType" : 5123,
            "count" : 360,
            "type" : "SCALAR"
        },
        {
            "bufferView" : 18,
            "componentType" : 5126,
            "count" : 240,
            "max" : [
                0.12736697494983673,
                -0.37197452783584595,
                0.18623633682727814
            ],
            "min" : [
                -0.12449371069669724,
                -0.37338918447494507,
                0.13838939368724823
            ],
            "type" : "VEC3"
        },
        {
            "bufferView" : 19,
            "componentType" : 5126,
            "count" : 240,
            "type" : "VEC3"
        },
        {
            "bufferView" : 20,
            "componentType" : 5126,
            "count" : 240,
            "type" : "VEC2"
        },
        {
            "bufferView" : 21,
            "componentType" : 5123,
            "count" : 360,
            "type" : "SCALAR"
        },
        {
            "bufferView" : 22,
            "componentType" : 5126,
            "count" : 240,
            "max" : [
                0.1271660029888153,
                0.4307555854320526,
                -0.1292104423046112
            ],
            "min" : [
                0.1257513016462326,
                -0.37364116311073303,
                -0.17705737054347992
            ],
            "type" : "VEC3"
        },
        {
            "bufferView" : 23,
            "componentType" : 5126,
            "count" : 240,
            "type" : "VEC3"
        },
        {
            "bufferView" : 24,
            "componentType" : 5126,
            "count" : 240,
            "type" : "VEC2"
        },
        {
            "bufferView" : 25,
            "componentType" : 5123,
            "count" : 360,
            "type" : "SCALAR"
        },
        {
            "bufferView" : 26,
            "componentType" : 5126,
            "count" : 2014,
            "max" : [
                0.3121022582054138,
                -0.32540297508239746,
                0.0021385513246059418
            ],
            "min" : [
                0.2097369134426117,
                -0.3753024935722351,
                -0.0021385550498962402
            ],
            "type" : "VEC3"
        },
        {
            "bufferView" : 27,
            "componentType" : 5126,
            "count" : 2014,
            "type" : "VEC3"
        },
        {
            "bufferView" : 28,
            "componentType" : 5126,
            "count" : 2014,
            "type" : "VEC2"
        },
        {
            "bufferView" : 29,
            "componentType" : 5123,
            "count" : 3132,
            "type" : "SCALAR"
        },
        {
            "bufferView" : 30,
            "componentType" : 5126,
            "count" : 1846,
            "max" : [
                0.05255000293254852,
                -0.32540297508239746,
                0.23594315350055695
            ],
            "min" : [
                -0.04981532320380211,
                -0.3753024935722351,
                0.23166604340076447
            ],
            "type" : "VEC3"
        },
        {
            "bufferView" : 31,
            "componentType" : 5126,
            "count" : 1846,
            "type" : "VEC3"
        },
        {
            "bufferView" : 32,
            "componentType" : 5126,
            "count" : 1846,
            "type" : "VEC2"
        },
        {
            "bufferView" : 33,
            "componentType" : 5123,
            "count" : 3132,
            "type" : "SCALAR"
        },
        {
            "bufferView" : 34,
            "componentType" : 5126,
            "count" : 2844,
            "max" : [
                0.24233755469322205,
                0.03323134779930115,
                -0.1759868711233139
            ],
            "min" : [
                0.13982965052127838,
                -0.0166681706905365,
                -0.18026398122310638
            ],
            "type" : "VEC3"
        },
        {
            "bufferView" : 35,
            "componentType" : 5126,
            "count" : 2844,
            "type" : "VEC3"
        },
        {
            "bufferView" : 36,
            "componentType" : 5126,
            "count" : 2844,
            "type" : "VEC2"
        },
        {
            "bufferView" : 37,
            "componentType" : 5123,
            "count" : 4620,
            "type" : "SCALAR"
        }
    ],
    "bufferViews" : [
        {
            "buffer" : 0,
            "byteLength" : 11436,
            "byteOffset" : 0
        },
        {
            "buffer" : 0,
            "byteLength" : 11436,
            "byteOffset" : 11436
        },
        {
            "buffer" : 0,
            "byteLength" : 7624,
            "byteOffset" : 22872
        },
        {
            "buffer" : 0,
            "byteLength" : 4854,
            "byteOffset" : 30496
        },
        {
            "buffer" : 0,
            "byteLength" : 320446,
            "byteOffset" : 35352
        },
        {
            "buffer" : 0,
            "byteLength" : 13812,
            "byteOffset" : 355800
        },
        {
            "buffer" : 0,
            "byteLength" : 13812,
            "byteOffset" : 369612
        },
        {
            "buffer" : 0,
            "byteLength" : 9208,
            "byteOffset" : 383424
        },
        {
            "buffer" : 0,
            "byteLength" : 4854,
            "byteOffset" : 392632
        },
        {
            "buffer" : 0,
            "byteLength" : 11112,
            "byteOffset" : 397488
        },
        {
            "buffer" : 0,
            "byteLength" : 11112,
            "byteOffset" : 408600
        },
        {
            "buffer" : 0,
            "byteLength" : 7408,
            "byteOffset" : 419712
        },
        {
            "buffer" : 0,
            "byteLength" : 3552,
            "byteOffset" : 427120
        },
        {
            "buffer" : 0,
            "byteLength" : 710,
            "byteOffset" : 430672
        },
        {
            "buffer" : 0,
            "byteLength" : 2880,
            "byteOffset" : 431384
        },
        {
            "buffer" : 0,
            "byteLength" : 2880,
            "byteOffset" : 434264
        },
        {
            "buffer" : 0,
            "byteLength" : 1920,
            "byteOffset" : 437144
        },
        {
            "buffer" : 0,
            "byteLength" : 720,
            "byteOffset" : 439064
        },
        {
            "buffer" : 0,
            "byteLength" : 2880,
            "byteOffset" : 439784
        },
        {
            "buffer" : 0,
            "byteLength" : 2880,
            "byteOffset" : 442664
        },
        {
            "buffer" : 0,
            "byteLength" : 1920,
            "byteOffset" : 445544
        },
        {
            "buffer" : 0,
            "byteLength" : 720,
            "byteOffset" : 447464
        },
        {
            "buffer" : 0,
            "byteLength" : 2880,
            "byteOffset" : 448184
        },
        {
            "buffer" : 0,
            "byteLength" : 2880,
            "byteOffset" : 451064
        },
        {
            "buffer" : 0,
            "byteLength" : 1920,
            "byteOffset" : 453944
        },
        {
            "buffer" : 0,
            "byteLength" : 720,
            "byteOffset" : 455864
        },
        {
            "buffer" : 0,
            "byteLength" : 24168,
            "byteOffset" : 456584
        },
        {
            "buffer" : 0,
            "byteLength" : 24168,
            "byteOffset" : 480752
        },
        {
            "buffer" : 0,
            "byteLength" : 16112,
            "byteOffset" : 504920
        },
        {
            "buffer" : 0,
            "byteLength" : 6264,
            "byteOffset" : 521032
        },
        {
            "buffer" : 0,
            "byteLength" : 22152,
            "byteOffset" : 527296
        },
        {
            "buffer" : 0,
            "byteLength" : 22152,
            "byteOffset" : 549448
        },
        {
            "buffer" : 0,
            "byteLength" : 14768,
            "byteOffset" : 571600
        },
        {
            "buffer" : 0,
            "byteLength" : 6264,
            "byteOffset" : 586368
        },
        {
            "buffer" : 0,
            "byteLength" : 34128,
            "byteOffset" : 592632
        },
        {
            "buffer" : 0,
            "byteLength" : 34128,
            "byteOffset" : 626760
        },
        {
            "buffer" : 0,
            "byteLength" : 22752,
            "byteOffset" : 660888
        },
        {
            "buffer" : 0,
            "byteLength" : 9240,
            "byteOffset" : 683640
        }
    ],
    "samplers" : [
        {
            "magFilter" : 9729,
            "minFilter" : 9987
        }
    ],
    "buffers" : [
        {
            "byteLength" : 692880,
            "uri" : "data:application/octet-stream;base64,"
        }
    ]
}
